<svg version="1" xmlns="http://www.w3.org/2000/svg" width="346.667" height="346.667" viewBox="0 0 260.000000 260.000000"><path d="M0 130v130h260V0H0v130zm161.4-94.5c8.7 1.9 22.3 6.5 29.8 10l5.8 2.6-1.4 3.2c-.7 1.8-4.2 9.9-7.6 18-3.7 8.7-6.7 14.6-7.4 14.3-17.1-7.2-21.9-9-28.3-10.6-9.1-2.4-23.8-2.7-28.7-.6-6.8 2.8-9.7 11-6.4 18.1 1.7 3.8 10.4 9.1 29.3 17.9 29.3 13.5 40.4 21.5 46.8 33.3 5.3 10 7 25.3 4.3 38.5-6.2 29.1-32.5 44.8-75.1 44.8-20.6 0-39.5-3.2-52.7-8.9l-4.8-2v-20.6c0-11.3.4-20.5.8-20.5s4.8 1.6 9.6 3.5c4.8 2 14 5 20.4 6.7 10.5 2.8 13.2 3.2 26.2 3.2 15.7.1 18.5-.6 23.6-6.1 3.1-3.3 4-9.9 2.1-14.6-2.4-5.7-8.2-9.4-33.7-21.5-27-12.8-37.2-20.7-43.5-33.7-5.4-11-6.9-25.8-4-38.3 2-8.3 4.7-13.4 10.3-19.5 9-9.6 19.8-14.9 37.3-18.2 9.5-1.9 37.4-1.3 47.3 1z"/></svg>